# xmcd CD database file
#
# Track frame offsets:
#	150
#	18855
#	39049
#
# Disc length: 767 seconds
#
# Revision: 2
# Processed by: cddbd v1.5.1PL2 Copyright (c) Steve Scherf et al.
# Submitted via: CD2WAV32(JP) R3.22
#
DISCID=1102fd03
DTITLE=Stardust Revue - いのちのこたえ
DYEAR=2006
DGENRE=JPop
TTITLE0=いのちのこたえ
TTITLE1=カザミドリ
TTITLE2=いのちのこたえ(instrumental)
EXTD=
EXTT0=
EXTT1=
EXTT2=
PLAYORDER=
